<?xml version="1.0" encoding="UTF-8" standalone="no"?>
<!DOCTYPE svg PUBLIC "-//W3C//DTD SVG 1.1//EN" "http://www.w3.org/Graphics/SVG/1.1/DTD/svg11.dtd">
<svg width="100%" height="100%" viewBox="0 0 2048 2048" version="1.1" xmlns="http://www.w3.org/2000/svg" xmlns:xlink="http://www.w3.org/1999/xlink" xml:space="preserve" xmlns:serif="http://www.serif.com/" style="fill-rule:evenodd;clip-rule:evenodd;stroke-linecap:round;stroke-linejoin:round;stroke-miterlimit:1.5;">
    <g id="Layer1" transform="matrix(1.50413,0,0,1.50413,-523.832,-524.464)">
        <path d="M721.534,1203.55L622.673,1103.61L667.048,1007.09L734.844,1022.87L821.073,981.145L798.866,878.583L575.034,520.376L728.892,374.227L975.05,881.718L1066.2,985.399L1092.31,1081.8L1205.01,1252.78L1423.87,1399.77L1424.74,1408.27L1386.27,1520.2L1254.02,1527.24L1205.13,1406.12L992.124,1237.11L1025.66,1415.96L974.245,1463.65L874.014,1496.02L814.077,1408.68L876.079,1324.24L855.982,1110.45C721.637,1203.42 721.534,1203.55 721.534,1203.55Z"/>
        <path d="M857.353,1109.51C721.455,1203.55 721.534,1203.55 721.534,1203.55L622.673,1103.61L667.048,1007.09L734.844,1022.87L821.073,981.145L798.866,878.583L575.034,520.376L728.892,374.227L975.05,881.718L1066.2,985.399L1092.31,1081.8L1205.01,1252.78L1423.87,1399.77L1424.74,1408.27L1386.27,1520.2L1254.02,1527.24L1205.13,1406.12L992.124,1237.11L1025.66,1415.96L974.245,1463.65L874.014,1496.02L814.077,1408.68L876.079,1324.24L855.982,1110.45" style="fill:none;stroke:black;stroke-width:0.66px;"/>
        <path d="M712.584,1043.47C714.74,1045.41 750.637,1068.21 750.637,1068.21L765.864,1050.99L712.355,1043.33" style="fill:rgb(142,36,30);stroke:black;stroke-width:0.66px;"/>
        <path d="M921.84,1124.92L946.183,1139.2L992.929,1391.84L952.785,1430.51L974.095,1392.65L921.84,1124.92Z" style="fill:rgb(142,36,30);"/>
        <path d="M921.84,1124.92L946.183,1139.2L992.929,1391.84L952.785,1430.51L974.095,1392.65L921.84,1124.92" style="fill:none;stroke:black;stroke-width:0.66px;"/>
        <path d="M940.183,907.595L948.44,902.91L1038.99,1004.83L1064.03,1095.33L1181.53,1275.61L1392.96,1411.61L1374.93,1464.23L1371.62,1419.97L1171.98,1286.71L1051.38,1099.51L1027.81,1011.25L940.183,907.595Z" style="fill:rgb(142,36,30);"/>
        <path d="M940.183,907.595L948.44,902.91L1038.99,1004.83L1064.03,1095.33L1181.53,1275.61L1392.96,1411.61L1374.93,1464.23L1371.62,1419.97L1171.98,1286.71L1051.38,1099.51L1027.81,1011.25L940.183,907.595Z" style="fill:none;stroke:black;stroke-width:0.66px;"/>
        <path d="M640.623,1087.88C568.441,1086.53 501.427,1102.6 462.404,1213.09C455.98,1071.87 507.85,977.556 645.64,999.338L640.623,1087.88Z"/>
        <path d="M640.623,1087.88L645.64,999.338C507.85,977.556 455.98,1071.87 462.404,1213.09C501.427,1102.6 568.441,1086.53 640.623,1087.88Z" style="fill:none;stroke:black;stroke-width:0.66px;"/>
        <path d="M1390.32,1474.54L1438.85,1412.45C1540.64,1468.43 1560.89,1547.97 1508.32,1648.53C1497.11,1550.1 1460.35,1488.41 1390.32,1474.54Z"/>
        <g transform="matrix(1,0,0,1,-12.8685,2.87453)">
            <path d="M1403.19,1471.66L1451.72,1409.57C1553.51,1465.56 1573.76,1545.09 1521.19,1645.66C1509.98,1547.23 1473.21,1485.54 1403.19,1471.66Z" style="fill:none;stroke:black;stroke-width:0.66px;"/>
        </g>
        <path d="M874.335,1474.41L966.265,1500.57C971.013,1614.26 875.816,1685.6 763.156,1684.72C843.177,1636.77 886.94,1570.13 874.335,1474.41Z"/>
        <path d="M874.335,1474.41L966.265,1500.57C971.013,1614.26 875.816,1685.6 763.156,1684.72C843.177,1636.77 886.94,1570.13 874.335,1474.41Z" style="fill:none;stroke:black;stroke-width:0.66px;"/>
        <path d="M1132.73,1114.6L1265.22,1194.42L1408.18,1185.65L1461.95,1296.34L1423.86,1348.51L1208.45,1239.7L1132.73,1114.6Z"/>
        <path d="M1132.73,1114.6L1208.45,1239.7L1423.86,1348.51L1461.95,1296.34L1408.18,1185.65L1265.22,1194.42L1132.73,1114.6Z" style="fill:none;stroke:black;stroke-width:0.66px;"/>
        <path d="M1331.5,1226.2L1389.18,1221.74L1403.37,1260.67L1375.07,1234.98L1334.02,1236.86L1331.5,1226.2Z" style="fill:rgb(142,36,30);"/>
        <path d="M1331.5,1226.2L1334.02,1236.86L1375.07,1234.98L1403.37,1260.67L1389.18,1221.74L1331.5,1226.2" style="fill:none;stroke:black;stroke-width:0.66px;"/>
        <g transform="matrix(1,0,0,1,-3.88217,12.7172)">
            <path d="M1435.25,1241.21L1431.02,1182.84C1553.78,1175.83 1605.2,1228.1 1599.72,1327.66C1546.85,1255.59 1491.96,1228.23 1435.25,1241.21Z"/>
        </g>
        <g transform="matrix(1,0,0,1,-3.88217,12.7172)">
            <path d="M1435.25,1241.21L1431.02,1182.84C1553.78,1175.83 1605.2,1228.1 1599.72,1327.66C1546.85,1255.59 1491.96,1228.23 1435.25,1241.21Z" style="fill:none;stroke:black;stroke-width:0.66px;"/>
        </g>
    </g>
</svg>
